<svg width="24" height="24" viewBox="0 0 24 24" fill="none" xmlns="http://www.w3.org/2000/svg">
<path d="M17.5002 15.8327V16.666H2.50016V15.8327L4.16683 14.166V9.16602C4.16683 6.58268 5.8585 4.30768 8.3335 3.57435C8.3335 3.49102 8.3335 3.41602 8.3335 3.33268C8.3335 2.89065 8.50909 2.46673 8.82165 2.15417C9.13421 1.84161 9.55813 1.66602 10.0002 1.66602C10.4422 1.66602 10.8661 1.84161 11.1787 2.15417C11.4912 2.46673 11.6668 2.89065 11.6668 3.33268C11.6668 3.41602 11.6668 3.49102 11.6668 3.57435C14.1418 4.30768 15.8335 6.58268 15.8335 9.16602V14.166L17.5002 15.8327ZM11.6668 17.4993C11.6668 17.9414 11.4912 18.3653 11.1787 18.6779C10.8661 18.9904 10.4422 19.166 10.0002 19.166C9.55813 19.166 9.13421 18.9904 8.82165 18.6779C8.50909 18.3653 8.3335 17.9414 8.3335 17.4993H11.6668ZM16.4585 2.65768L15.2752 3.84102C16.7002 5.24935 17.5002 7.16602 17.5002 9.16602H19.1668C19.1668 6.72435 18.2002 4.37435 16.4585 2.65768ZM0.833496 9.16602H2.50016C2.50016 7.16602 3.30016 5.24935 4.72516 3.84102L3.54183 2.65768C1.80016 4.37435 0.833496 6.72435 0.833496 9.16602Z" fill="black"/>
</svg>
