<svg width="25" height="24" viewBox="0 0 25 24" fill="none" xmlns="http://www.w3.org/2000/svg">
<g opacity="0.5">
<path d="M18.3776 21.29C17.9876 21.68 17.3576 21.68 16.9676 21.29L14.8476 19.17C14.4576 18.78 14.4576 18.15 14.8476 17.76C15.2376 17.37 15.8676 17.37 16.2576 17.76L17.6676 19.17L21.2076 15.63C21.5976 15.24 22.2276 15.24 22.6176 15.63C23.0076 16.02 23.0076 16.65 22.6176 17.04L18.3776 21.29ZM12.4076 20H4.32764C3.22764 20 2.32764 19.1 2.32764 18V6C2.32764 4.9 3.22764 4 4.32764 4H20.3276C21.4276 4 22.3276 4.9 22.3276 6V12.68C21.4176 12.25 20.4076 12 19.3276 12C15.4576 12 12.3276 15.13 12.3276 19C12.3276 19.34 12.3576 19.67 12.4076 20ZM11.7976 12.67C12.1176 12.87 12.5376 12.87 12.8576 12.67L19.9276 8.25C20.1776 8.09 20.3276 7.82 20.3276 7.53C20.3276 6.86 19.5976 6.46 19.0276 6.81L12.3276 11L5.62764 6.81C5.05764 6.46 4.32764 6.86 4.32764 7.53C4.32764 7.82 4.47764 8.09 4.72764 8.25L11.7976 12.67Z" fill="black"/>
</g>
</svg>
