<svg width="20" height="20" viewBox="0 0 20 20" fill="none" xmlns="http://www.w3.org/2000/svg">
<path fill-rule="evenodd" clip-rule="evenodd" d="M10.3182 5.39176H10.2943C9.86386 5.39176 9.51311 5.04078 9.51311 4.60205V2.18505C9.51311 1.7543 9.86386 1.40332 10.3023 1.40332H10.3262C10.7567 1.40332 11.1074 1.7543 11.1074 2.18505V4.61003C11.1074 5.04078 10.7567 5.39176 10.3182 5.39176ZM15.3323 7.07488C15.0214 7.38598 14.5271 7.38598 14.2163 7.07488L14.2083 7.05893C13.8974 6.75581 13.8974 6.25326 14.2083 5.95014L15.9381 4.23511C16.241 3.93199 16.7432 3.93199 17.0461 4.23511C17.357 4.53823 17.357 5.04078 17.0461 5.3439C16.5439 5.84644 15.8265 6.57234 15.3323 7.07488ZM5.29623 7.06691C5.59914 7.378 6.10134 7.378 6.41223 7.06691C6.71514 6.76378 6.71514 6.26124 6.41223 5.95812L4.69837 4.22714C4.39546 3.91604 3.89326 3.91604 3.59034 4.22714L3.5744 4.23511C3.26351 4.54621 3.26351 5.04078 3.5744 5.3439C4.0766 5.83847 4.802 6.56436 5.29623 7.06691ZM1.39023 12.7544C6.49991 8.23951 14.2003 8.23951 19.31 12.7544C19.9876 13.3527 19.9876 14.4136 19.3578 15.0518L18.3853 16.0249C17.8114 16.5993 16.9026 16.6471 16.2649 16.1446L14.6786 14.8842C14.296 14.5811 14.0728 14.1185 14.0728 13.6319V11.5499C11.6574 10.7602 9.05077 10.7682 6.6434 11.5499V13.6239C6.6434 14.1105 6.4202 14.5731 6.03757 14.8763L4.44328 16.1446C3.80557 16.6471 2.89683 16.5993 2.32288 16.0249L1.35037 15.0518C0.712656 14.4136 0.712656 13.3527 1.39023 12.7544Z" fill="white"/>
</svg>
