<svg width="24" height="21" viewBox="0 0 24 21" fill="none" xmlns="http://www.w3.org/2000/svg">
<path fill-rule="evenodd" clip-rule="evenodd" d="M12.3501 2.2303C12.3501 0.998541 11.3448 0 10.1046 0H2.24548C1.00533 0 0 0.998541 0 2.2303V17.8424C0 19.0691 0.999236 20.0727 2.24548 20.0727H10.1046C11.3448 20.0727 12.3501 19.0742 12.3501 17.8424V2.2303ZM10.1046 4.46061V15.6121H2.24548V4.46061H10.1046Z" fill="black"/>
<path d="M16.2797 0H21.8934C22.8235 0 23.5775 0.748905 23.5775 1.67273V5.01818C23.5775 5.942 22.8235 6.69091 21.8934 6.69091H17.9638L14.5956 10.0364V6.69091V1.67273C14.5956 0.748905 15.3496 0 16.2797 0Z" fill="black"/>
</svg>
