<svg width="24" height="24" viewBox="0 0 24 24" fill="none" xmlns="http://www.w3.org/2000/svg">
<g clip-path="url(#clip0)">
<path d="M2.12821 5H21.8718C22.4949 5 23 5.50145 23 6.12V17.88C23 18.4986 22.4949 19 21.8718 19H2.12821C1.50513 19 1 18.4986 1 17.88V6.12C1 5.50145 1.50513 5 2.12821 5Z" fill="#0E4595"/>
<path d="M9.26975 14.7644L10.2107 9.28315H11.7157L10.7741 14.7644H9.26975ZM16.2113 9.40131C15.9132 9.29026 15.4459 9.1711 14.8625 9.1711C13.3754 9.1711 12.3278 9.9145 12.319 10.98C12.3105 11.7676 13.0668 12.207 13.6376 12.4692C14.2234 12.7379 14.4203 12.9092 14.4176 13.1491C14.4139 13.5165 13.9498 13.6844 13.5172 13.6844C12.9148 13.6844 12.5948 13.6013 12.1006 13.3966L11.9066 13.3096L11.6954 14.5366C12.0469 14.6896 12.697 14.8221 13.3718 14.829C14.9539 14.829 15.9808 14.0941 15.9926 12.9563C15.9982 12.3328 15.5972 11.8583 14.7289 11.467C14.2029 11.2135 13.8808 11.0443 13.8842 10.7875C13.8842 10.5597 14.1569 10.316 14.746 10.316C15.2382 10.3085 15.5947 10.415 15.8725 10.526L16.0073 10.5893L16.2113 9.40131V9.40131ZM20.0842 9.28307H18.9212C18.5609 9.28307 18.2913 9.38071 18.1331 9.73762L15.898 14.7608H17.4784C17.4784 14.7608 17.7368 14.0854 17.7952 13.9371C17.968 13.9371 19.5032 13.9395 19.7227 13.9395C19.7677 14.1314 19.9057 14.7608 19.9057 14.7608H21.3023L20.0842 9.2829V9.28307ZM18.239 12.8226C18.3635 12.5067 18.8387 11.2903 18.8387 11.2903C18.8298 11.3049 18.9622 10.973 19.0382 10.7672L19.1399 11.2398C19.1399 11.2398 19.4281 12.5482 19.4883 12.8226H18.239ZM7.99211 9.28307L6.51868 13.0211L6.36166 12.2614C6.08736 11.3858 5.23275 10.4371 4.27735 9.96213L5.6246 14.7557L7.21695 14.7539L9.5863 9.28301H7.99211" fill="white"/>
<path d="M5.1439 9.28289H2.7171L2.69789 9.39693C4.58589 9.85064 5.83515 10.9471 6.35384 12.2644L5.82612 9.74553C5.73502 9.39847 5.47082 9.2949 5.14395 9.28278" fill="#F2AE14"/>
</g>
<defs>
<clipPath id="clip0">
<rect width="24" height="24" fill="white"/>
</clipPath>
</defs>
</svg>
