<svg width="24" height="24" viewBox="0 0 24 24" fill="none" xmlns="http://www.w3.org/2000/svg">
<path fill-rule="evenodd" clip-rule="evenodd" d="M1.77783 12C1.77783 6.5 6.37783 2 12.0001 2C17.6223 2 22.2223 6.5 22.2223 12C22.2223 17.5 17.6223 22 12.0001 22C6.37783 22 1.77783 17.5 1.77783 12ZM11.4583 13.29L15.6289 15.8C15.9969 16.02 16.4774 15.91 16.7023 15.56C16.9272 15.2 16.8045 14.73 16.4365 14.51L12.5112 12.2V7.75C12.5112 7.34 12.1636 7 11.7445 7C11.3254 7 10.9778 7.34 10.9676 7.75V12.44C10.9676 12.79 11.1516 13.11 11.4583 13.29Z" fill="black"/>
</svg>
