<svg width="24" height="24" viewBox="0 0 24 24" fill="none" xmlns="http://www.w3.org/2000/svg">
<path d="M19.9673 4.21193C19.4793 3.72387 18.6909 3.72387 18.2028 4.21193L12.0834 10.3189L5.96392 4.19941C5.47587 3.71136 4.68747 3.71136 4.19941 4.19941C3.71136 4.68747 3.71136 5.47587 4.19941 5.96392L10.3189 12.0834L4.19941 18.2028C3.71136 18.6909 3.71136 19.4793 4.19941 19.9673C4.68747 20.4554 5.47587 20.4554 5.96392 19.9673L12.0834 13.8479L18.2028 19.9673C18.6909 20.4554 19.4793 20.4554 19.9673 19.9673C20.4554 19.4793 20.4554 18.6909 19.9673 18.2028L13.8479 12.0834L19.9673 5.96392C20.4429 5.48838 20.4429 4.68747 19.9673 4.21193Z" fill="black"/>
</svg>
