<svg width="24" height="24" viewBox="0 0 24 24" fill="none" xmlns="http://www.w3.org/2000/svg">
<path d="M8.7925 10.24V6.5C8.7925 5.12 9.9125 4 11.2925 4C12.6725 4 13.7925 5.12 13.7925 6.5V10.24C15.0025 9.43 15.7925 8.06 15.7925 6.5C15.7925 4.01 13.7825 2 11.2925 2C8.8025 2 6.7925 4.01 6.7925 6.5C6.7925 8.06 7.5825 9.43 8.7925 10.24ZM14.2925 12.71C14.0125 12.57 13.7125 12.5 13.4025 12.5H12.7925V6.5C12.7925 5.67 12.1225 5 11.2925 5C10.4625 5 9.7925 5.67 9.7925 6.5V17.24L6.3525 16.52C5.9825 16.44 5.5925 16.56 5.3225 16.83C4.8925 17.27 4.8925 17.97 5.3225 18.41L9.3325 22.42C9.7125 22.79 10.2225 23 10.7525 23H16.8525C17.8525 23 18.6925 22.27 18.8325 21.28L19.4625 16.81C19.5825 15.96 19.1425 15.12 18.3725 14.74L14.2925 12.71Z" fill="black"/>
</svg>
