<svg width="22" height="15" viewBox="0 0 22 15" fill="none" xmlns="http://www.w3.org/2000/svg">
<path d="M10.9999 0C6.30992 0 2.25992 2.74 0.349922 6.7C0.109922 7.2 0.109922 7.8 0.349922 8.3C2.25992 12.26 6.30992 15 10.9999 15C15.6899 15 19.7399 12.26 21.6499 8.3C21.8899 7.8 21.8899 7.2 21.6499 6.7C19.7399 2.74 15.6899 0 10.9999 0ZM10.9999 12C8.51992 12 6.49992 9.98 6.49992 7.5C6.49992 5.02 8.51992 3 10.9999 3C13.4799 3 15.4999 5.02 15.4999 7.5C15.4999 9.98 13.4799 12 10.9999 12Z" fill="#3FC053"/>
<path d="M10.9998 10.2C12.491 10.2 13.6998 8.99116 13.6998 7.49999C13.6998 6.00882 12.491 4.79999 10.9998 4.79999C9.50864 4.79999 8.2998 6.00882 8.2998 7.49999C8.2998 8.99116 9.50864 10.2 10.9998 10.2Z" fill="#3FC053"/>
</svg>
