<svg width="24" height="24" viewBox="0 0 24 24" fill="none" xmlns="http://www.w3.org/2000/svg">
<path d="M14.1802 9.86625C14.1802 9.86625 15.1245 4.38125 11.2717 2C11.1556 3.90607 10.223 5.6731 8.70738 6.85875C7.06198 8.2875 3.96735 11.5 4.00026 14.925C3.97615 17.9116 5.66885 20.6534 8.36817 22C8.46368 20.6645 9.09962 19.4233 10.1326 18.5562C11.0078 17.8915 11.576 16.9074 11.7096 15.825C14.0139 17.0348 15.5041 19.3521 15.6333 21.9263V21.9425C18.18 20.7904 19.8566 18.3241 19.9721 15.56C20.2455 12.3425 18.4608 7.9675 16.8774 6.5375C16.2796 7.85556 15.3513 9.00126 14.1802 9.86625Z" fill="black"/>
</svg>
