<svg width="24" height="24" viewBox="0 0 24 24" fill="none" xmlns="http://www.w3.org/2000/svg"><path d="M23 12C23 18.0765 18.0747 23 12 23C5.92529 23 1 18.0765 1 12C1 5.92707 5.92529 1 12 1C18.0747 1 23 5.92707 23 12ZM12.2952 4.6371C9.87798 4.6371 8.33629 5.65535 7.12567 7.46507C6.96883 7.69953 7.0213 8.01574 7.24609 8.18619L8.78516 9.35317C9.01603 9.52824 9.34496 9.48659 9.52433 9.25905C10.3167 8.25406 10.86 7.67128 12.066 7.67128C12.9721 7.67128 14.0929 8.25446 14.0929 9.13313C14.0929 9.79738 13.5446 10.1385 12.6499 10.6401C11.6065 11.225 10.2258 11.953 10.2258 13.7742V13.9516C10.2258 14.2456 10.4641 14.4839 10.7581 14.4839H13.2419C13.5359 14.4839 13.7742 14.2456 13.7742 13.9516V13.8925C13.7742 12.6301 17.4639 12.5775 17.4639 9.16129C17.4639 6.58862 14.7953 4.6371 12.2952 4.6371V4.6371ZM12 15.6371C10.8749 15.6371 9.95968 16.5524 9.95968 17.6774C9.95968 18.8024 10.8749 19.7177 12 19.7177C13.1251 19.7177 14.0403 18.8024 14.0403 17.6774C14.0403 16.5524 13.1251 15.6371 12 15.6371Z" fill="black"/></svg>
