<svg width="24" height="24" viewBox="0 0 24 24" fill="none" xmlns="http://www.w3.org/2000/svg">
<path d="M9 9.24V5.5C9 4.12 10.12 3 11.5 3C12.88 3 14 4.12 14 5.5V9.24C15.21 8.43 16 7.06 16 5.5C16 3.01 13.99 1 11.5 1C9.01 1 7 3.01 7 5.5C7 7.06 7.79 8.43 9 9.24Z" fill="#3FC053"/>
<path d="M14.5 11.71C14.22 11.57 13.92 11.5 13.61 11.5H13V5.5C13 4.67 12.33 4 11.5 4C10.67 4 10 4.67 10 5.5V16.24L6.56 15.52C6.19 15.44 5.8 15.56 5.53 15.83C5.1 16.27 5.1 16.97 5.54 17.41L9.55 21.42C9.92 21.79 10.43 22 10.96 22H17.37C18.37 22 19.21 21.27 19.35 20.28L19.98 15.82C20.1 14.97 19.66 14.13 18.89 13.75L14.5 11.71Z" fill="#3FC053"/>
</svg>
