<svg width="15" height="21" viewBox="0 0 15 21" fill="none" xmlns="http://www.w3.org/2000/svg">
<path d="M4 8.24V4.5C4 3.12 5.12 2 6.5 2C7.88 2 9 3.12 9 4.5V8.24C10.21 7.43 11 6.06 11 4.5C11 2.01 8.99 0 6.5 0C4.01 0 2 2.01 2 4.5C2 6.06 2.79 7.43 4 8.24Z" fill="#3FC053"/>
<path d="M9.5 10.71C9.22 10.57 8.92 10.5 8.61 10.5H8V4.5C8 3.67 7.33 3 6.5 3C5.67 3 5 3.67 5 4.5V15.24L1.56 14.52C1.19 14.44 0.800001 14.56 0.530001 14.83C0.100001 15.27 0.100001 15.97 0.540001 16.41L4.55 20.42C4.92 20.79 5.43 21 5.96 21H12.37C13.37 21 14.21 20.27 14.35 19.28L14.98 14.82C15.1 13.97 14.66 13.13 13.89 12.75L9.5 10.71Z" fill="#3FC053"/>
</svg>
