<svg width="24" height="24" viewBox="0 0 24 24" fill="none" xmlns="http://www.w3.org/2000/svg">
<path fill-rule="evenodd" clip-rule="evenodd" d="M6.76788 10.3197C9.33348 4.77582 10.6661 2.67083 14.8584 2.75811C16.3516 2.78889 15.9922 1.67243 17.1304 2.09608C18.2687 2.51973 17.2919 3.13968 18.4565 4.09854C21.7216 6.79043 21.4207 9.28065 19.9056 15.2149C19.2674 17.715 21.4437 17.8376 20.5825 20.2603C19.9539 22.0275 15.32 22.7669 10.4287 20.9444C5.53852 19.1227 2.45259 15.5064 3.08091 13.74C3.9424 11.3162 5.68589 12.6543 6.76788 10.3197ZM10.9605 19.4514C15.3276 21.0788 18.9169 20.1222 19.0685 19.6966C19.3298 18.9628 17.6589 16.5147 12.6655 14.6545C7.67211 12.7944 4.886 13.4838 4.59491 14.3038C4.4225 14.787 6.59209 17.8243 10.9605 19.4514ZM12.3634 15.5041C14.6464 16.3548 16.2341 17.3278 17.2601 18.2036C16.5384 18.8634 15.1836 19.0247 13.8336 18.5214C12.1151 17.8816 11.0604 16.4121 11.478 15.2392C11.4823 15.2251 11.4901 15.2129 11.4955 15.1985C11.7767 15.2923 12.0656 15.3925 12.3634 15.5041Z" fill="black"/>
</svg>
