<svg width="24" height="24" viewBox="0 0 24 24" fill="none" xmlns="http://www.w3.org/2000/svg">
<g clip-path="url(#clip0)">
<path d="M19.8125 5H4.1875C2.98133 5 2 5.99917 2 7.22727V16.7727C2 18.0008 2.98133 19 4.1875 19H19.8125C21.0187 19 22 18.0008 22 16.7727V7.22727C22 5.99917 21.0187 5 19.8125 5ZM4.1875 6.27273H19.8125C20.3294 6.27273 20.75 6.70096 20.75 7.22727V8.5H3.25V7.22727C3.25 6.70096 3.67059 6.27273 4.1875 6.27273ZM19.8125 17.7273H4.1875C3.67059 17.7273 3.25 17.299 3.25 16.7727V9.77273H20.75V16.7727C20.75 17.299 20.3294 17.7273 19.8125 17.7273Z" fill="black"/>
<path d="M6.375 15.8182H5.75C5.40484 15.8182 5.125 15.5333 5.125 15.1818V14.5455C5.125 14.194 5.40484 13.9091 5.75 13.9091H6.375C6.72016 13.9091 7 14.194 7 14.5455V15.1818C7 15.5333 6.72016 15.8182 6.375 15.8182Z" fill="black"/>
</g>
<defs>
<clipPath id="clip0">
<rect width="24" height="24" fill="white"/>
</clipPath>
</defs>
</svg>
