<svg width="24" height="24" viewBox="0 0 24 24" fill="none" xmlns="http://www.w3.org/2000/svg">
<path fill-rule="evenodd" clip-rule="evenodd" d="M15.2816 11.6724H11.1673C10.8429 11.6724 10.5796 11.9392 10.5796 12.2653C10.5796 12.5926 10.8429 12.8582 11.1673 12.8582H12.3429C13.9627 12.8582 15.2816 14.1887 15.2816 15.8228C15.2816 17.2541 14.2707 18.4529 12.9306 18.728V19.9731H10.5796V18.7873H8.22857V16.4157H12.3429C12.6673 16.4157 12.9306 16.1501 12.9306 15.8228C12.9306 15.4967 12.6673 15.2299 12.3429 15.2299H11.1673C9.54749 15.2299 8.22857 13.8994 8.22857 12.2653C8.22857 10.834 9.23951 9.63634 10.5796 9.36123V8.11493H12.9306V9.30075H15.2816V11.6724ZM9.40408 3.37164H14.1061V4.55747H9.40408V3.37164ZM21.1592 4.55747V3.37164H18.8082V4.55747H16.4571V2.18582C16.4571 1.53125 15.9317 1 15.2816 1H8.22857C7.57969 1 7.05306 1.53125 7.05306 2.18582V4.55747H4.70204V3.37164H2.35102V4.55747C1.05443 4.55747 0 5.62115 0 6.92911V21.159C0 22.4669 1.05443 23.5306 2.35102 23.5306H21.1592C22.4569 23.5306 23.5102 22.4669 23.5102 21.159V6.92911C23.5102 5.62115 22.4569 4.55747 21.1592 4.55747Z" fill="black"/>
</svg>
