<svg width="24" height="24" viewBox="0 0 24 24" fill="none" xmlns="http://www.w3.org/2000/svg">
<path fill-rule="evenodd" clip-rule="evenodd" d="M22.0833 17.2353H21.1667V5.76471C21.1667 4.79412 20.3417 4 19.3333 4H4.66667C3.65833 4 2.83333 4.79412 2.83333 5.76471V17.2353H1.91667C1.4125 17.2353 1 17.6324 1 18.1176C1 18.6029 1.4125 19 1.91667 19H22.0833C22.5875 19 23 18.6029 23 18.1176C23 17.6324 22.5875 17.2353 22.0833 17.2353ZM13.375 17.2353H10.625C10.3683 17.2353 10.1667 17.0412 10.1667 16.7941C10.1667 16.5471 10.3683 16.3529 10.625 16.3529H13.375C13.6317 16.3529 13.8333 16.5471 13.8333 16.7941C13.8333 17.0412 13.6317 17.2353 13.375 17.2353ZM4.66667 14.5882H19.3333V6.64706C19.3333 6.16176 18.9208 5.76471 18.4167 5.76471H5.58333C5.07917 5.76471 4.66667 6.16176 4.66667 6.64706V14.5882Z" fill="black"/>
</svg>
