<svg width="24" height="24" viewBox="0 0 24 24" fill="none" xmlns="http://www.w3.org/2000/svg">
<g clip-path="url(#clip0)">
<path fill-rule="evenodd" clip-rule="evenodd" d="M23 18.5802C23 19.0027 22.6693 19.3478 22.2643 19.3478H1.73568C1.33069 19.3478 1 19.0027 1 18.5802V5.76769C1 5.34511 1.33069 5 1.73568 5H22.2643C22.6693 5 23 5.34511 23 5.76769V18.5802H23Z" fill="#14477C"/>
<path fill-rule="evenodd" clip-rule="evenodd" d="M14.638 16.2902L14.8405 16.2861L15.0432 16.2731L15.2415 16.2427L15.4357 16.2082L15.6259 16.1608L15.8159 16.1092L15.9978 16.04L16.1797 15.967L16.3531 15.8847L16.5225 15.7943L16.688 15.6949L16.8493 15.5874L17.0063 15.471L17.1551 15.3502L17.2955 15.2208L17.4358 15.0826L17.5641 14.9403L17.6883 14.7894L17.808 14.634L17.9196 14.4747L18.0187 14.3064L18.1181 14.134L18.2006 13.9572L18.2833 13.7718L18.3537 13.5862L18.4158 13.3923L18.4695 13.1981L18.5147 12.9998L18.548 12.7926L18.5728 12.5901L18.5891 12.3786L18.5932 12.1675L18.5891 11.956L18.5728 11.7447L18.548 11.5419L18.5147 11.3396L18.4695 11.1409L18.4158 10.9471L18.3537 10.7528L18.2833 10.5675L18.2006 10.3862L18.1181 10.2094L18.0187 10.037L17.9196 9.86879L17.808 9.70934L17.6883 9.55405L17.5641 9.40316L17.4358 9.26083L17.2955 9.12707L17.1551 8.9977L17.0063 8.87278L16.8493 8.76049L16.688 8.65259L16.5225 8.55359L16.3531 8.46282L16.1797 8.3809L15.9978 8.30782L15.8159 8.24302L15.6259 8.18701L15.4357 8.13957L15.2415 8.10509L15.0432 8.07917L14.8405 8.06181L14.638 8.05765L14.4355 8.06181L14.2372 8.07917L14.0387 8.10509L13.8447 8.13957L13.6543 8.18701L13.4643 8.24302L13.2822 8.30782L13.1046 8.3809L12.9309 8.46282L12.7615 8.55359L12.5963 8.65259L12.435 8.76049L12.2823 8.87278L12.1331 8.9977L11.9886 9.12707L11.8524 9.26083L11.7199 9.40316L11.6003 9.55405L11.4802 9.70934L11.3729 9.86879L11.2695 10.037L11.1746 10.2094L11.0877 10.3862L11.0091 10.5675L10.9388 10.7528L10.877 10.9471L10.8233 11.1409L10.7776 11.3396L10.7448 11.5419L10.7199 11.7447L10.7033 11.956L10.6991 12.1675L10.7033 12.3786L10.7199 12.5901L10.7448 12.7926L10.7776 12.9998L10.8233 13.1981L10.877 13.3923L10.9388 13.5862L11.0091 13.7718L11.0877 13.9572L11.1746 14.134L11.2695 14.3064L11.3729 14.4747L11.4802 14.634L11.6003 14.7894L11.7199 14.9403L11.8524 15.0826L11.9886 15.2208L12.1331 15.3502L12.2823 15.471L12.435 15.5874L12.5963 15.6949L12.7615 15.7943L12.9309 15.8847L13.1046 15.967L13.2822 16.04L13.4643 16.1092L13.6543 16.1608L13.8447 16.2082L14.0387 16.2427L14.2372 16.2731L14.4355 16.2861L14.638 16.2902Z" fill="#FBB230"/>
<path fill-rule="evenodd" clip-rule="evenodd" d="M9.36014 16.2902L9.56263 16.2861L9.76086 16.2731L9.95941 16.2427L10.1534 16.2082L10.3438 16.1608L10.5341 16.1092L10.7157 16.04L10.8933 15.967L11.0671 15.8847L11.2364 15.7943L11.4017 15.6949L11.5629 15.5874L11.7157 15.471L11.8649 15.3502L12.0095 15.2208L12.1455 15.0826L12.278 14.9403L12.398 14.7894L12.5178 14.634L12.6251 14.4747L12.7285 14.3064L12.8233 14.134L12.9104 13.9572L12.9889 13.7718L13.0592 13.5862L13.121 13.3923L13.1749 13.1981L13.2204 12.9998L13.2532 12.7926L13.278 12.5901L13.2947 12.3786L13.2989 12.1675L13.2947 11.956L13.278 11.7447L13.2532 11.5419L13.2204 11.3396L13.1749 11.1409L13.121 10.9471L13.0592 10.7528L12.9889 10.5675L12.9104 10.3862L12.8233 10.2094L12.7285 10.037L12.6251 9.86879L12.5178 9.70934L12.398 9.55405L12.278 9.40316L12.1455 9.26083L12.0095 9.12707L11.8649 8.9977L11.7157 8.87278L11.5629 8.76049L11.4017 8.65259L11.2364 8.55359L11.0671 8.46282L10.8933 8.3809L10.7157 8.30782L10.5341 8.24302L10.3438 8.18701L10.1534 8.13957L9.95941 8.10509L9.76086 8.07917L9.56263 8.06181L9.36014 8.05765L9.15765 8.06181L8.95488 8.07917L8.7566 8.10509L8.56236 8.13957L8.37256 8.18701L8.18221 8.24302L8.00035 8.30782L7.81843 8.3809L7.64504 8.46282L7.47564 8.55359L7.31009 8.65259L7.14917 8.76049L6.9921 8.87278L6.84305 8.9977L6.70266 9.12707L6.56227 9.26083L6.43407 9.40316L6.30977 9.55405L6.1901 9.70934L6.07854 9.86879L5.97936 10.037L5.87999 10.2094L5.79749 10.3862L5.71476 10.5675L5.64445 10.7528L5.58262 10.9471L5.52863 11.1409L5.48747 11.3396L5.45012 11.5419L5.4256 11.7447L5.40891 11.956L5.40497 12.1675L5.40891 12.3786L5.4256 12.5901L5.45012 12.7926L5.48747 12.9998L5.52863 13.1981L5.58262 13.3923L5.64445 13.5862L5.71476 13.7718L5.79749 13.9572L5.87999 14.134L5.97936 14.3064L6.07854 14.4747L6.1901 14.634L6.30977 14.7894L6.43407 14.9403L6.56227 15.0826L6.70266 15.2208L6.84305 15.3502L6.9921 15.471L7.14917 15.5874L7.31009 15.6949L7.47564 15.7943L7.64504 15.8847L7.81843 15.967L8.00035 16.04L8.18221 16.1092L8.37256 16.1608L8.56236 16.2082L8.7566 16.2427L8.95488 16.2731L9.15765 16.2861L9.36014 16.2902Z" fill="#EB2230"/>
<path fill-rule="evenodd" clip-rule="evenodd" d="M11.5381 9.63598H13.6338V9.41168H11.7199L11.5381 9.63598Z" fill="#FBB230"/>
<path fill-rule="evenodd" clip-rule="evenodd" d="M11.2241 10.1319H13.6338V9.90762H11.348L11.2241 10.1319Z" fill="#FBB230"/>
<path fill-rule="evenodd" clip-rule="evenodd" d="M10.9885 10.6279H13.6338V10.4036H11.0837L10.9885 10.6279Z" fill="#FBB230"/>
<path fill-rule="evenodd" clip-rule="evenodd" d="M10.8273 11.1238H13.6338V10.904H10.8933L10.8273 11.1238Z" fill="#FBB230"/>
<path fill-rule="evenodd" clip-rule="evenodd" d="M10.9221 13.5302H13.6419V13.306H10.8563L10.9221 13.5302Z" fill="#FBB230"/>
<path fill-rule="evenodd" clip-rule="evenodd" d="M11.1207 14.0261H13.6419V13.8019H11.0216L11.1207 14.0261Z" fill="#FBB230"/>
<path fill-rule="evenodd" clip-rule="evenodd" d="M11.4059 14.5221H13.6419V14.2979H11.2695L11.4059 14.5221Z" fill="#FBB230"/>
<path fill-rule="evenodd" clip-rule="evenodd" d="M11.7945 15.0181H13.6419V14.7938H11.6045L11.7945 15.0181Z" fill="#FBB230"/>
<path fill-rule="evenodd" clip-rule="evenodd" d="M10.7324 11.6198H13.6338V11.3997H10.7736L10.7324 11.6198Z" fill="#FBB230"/>
<path fill-rule="evenodd" clip-rule="evenodd" d="M12.5011 13.0343H13.6089V12.81H12.5426L12.5011 13.0343Z" fill="#FBB230"/>
<path fill-rule="evenodd" clip-rule="evenodd" d="M12.5878 12.5383H13.6089V12.3141H12.6294L12.5878 12.5383Z" fill="#FBB230"/>
<path fill-rule="evenodd" clip-rule="evenodd" d="M10.6578 12.3141H10.947V12.5383H10.6745L10.6578 12.3141Z" fill="#FBB230"/>
<path fill-rule="evenodd" clip-rule="evenodd" d="M18.213 14.4876C18.3164 14.4876 18.3991 14.5781 18.3991 14.6815C18.3991 14.7894 18.3164 14.8757 18.213 14.8757C18.1096 14.8757 18.0272 14.7894 18.0272 14.6815C18.0272 14.5781 18.1096 14.4876 18.213 14.4876ZM18.213 14.5221C18.3 14.5221 18.37 14.5955 18.37 14.6815C18.37 14.7723 18.3 14.8457 18.213 14.8457C18.1305 14.8457 18.0599 14.7723 18.0599 14.6815C18.0599 14.5955 18.1305 14.5221 18.213 14.5221Z" fill="#FBB230"/>
<path d="M18.143 14.7679V14.604H18.2091C18.2254 14.604 18.2379 14.604 18.2463 14.6085C18.2542 14.6126 18.2587 14.617 18.2627 14.6211C18.2667 14.63 18.2709 14.6385 18.2709 14.647C18.2709 14.66 18.2667 14.673 18.2627 14.6774C18.2542 14.686 18.2421 14.6904 18.2293 14.6945C18.2378 14.6989 18.242 14.7033 18.2463 14.7074C18.2502 14.7118 18.2587 14.7204 18.2626 14.7334L18.2833 14.7679H18.2462L18.2211 14.729C18.2168 14.716 18.2089 14.7119 18.2047 14.7075C18.2047 14.7033 18.2005 14.7033 18.1965 14.6989C18.1923 14.6989 18.1881 14.6989 18.1799 14.6989H18.1756V14.7679H18.143ZM18.1758 14.673H18.1966C18.213 14.673 18.2212 14.673 18.2255 14.6689C18.2294 14.6689 18.234 14.6689 18.234 14.6644C18.2379 14.66 18.2379 14.6559 18.2379 14.6514C18.2379 14.647 18.2379 14.6429 18.234 14.6385C18.2294 14.634 18.2255 14.634 18.2213 14.6299C18.2213 14.6299 18.213 14.6299 18.2007 14.6299H18.1758V14.673H18.1758Z" fill="#FBB230"/>
<path fill-rule="evenodd" clip-rule="evenodd" d="M18.1718 12.866C18.2751 12.866 18.3576 12.9524 18.3576 13.0603C18.3576 13.1681 18.2751 13.2541 18.1718 13.2541C18.0684 13.2541 17.986 13.1681 17.986 13.0603C17.986 12.9523 18.0684 12.866 18.1718 12.866ZM18.1718 12.9005C18.2588 12.9005 18.3289 12.9738 18.3289 13.0602C18.3289 13.1507 18.2588 13.2241 18.1718 13.2241C18.0848 13.2241 18.0148 13.1507 18.0148 13.0602C18.0148 12.9738 18.0848 12.9005 18.1718 12.9005Z" fill="white"/>
<path d="M18.1015 13.1421V12.9824H18.1676C18.1842 12.9824 18.1966 12.9824 18.2048 12.9868C18.2091 12.9868 18.2169 12.9954 18.2212 12.9998C18.2254 13.0083 18.2294 13.0168 18.2294 13.0257C18.2294 13.0387 18.2254 13.0472 18.2169 13.0557C18.213 13.0643 18.2006 13.0687 18.1882 13.0731C18.1924 13.0772 18.2006 13.0817 18.2048 13.0861C18.2091 13.0902 18.213 13.0988 18.2212 13.1118L18.242 13.1421H18.2048L18.1799 13.1076C18.1717 13.0947 18.1675 13.0861 18.1633 13.0861C18.1593 13.0817 18.1593 13.0772 18.1553 13.0772C18.1508 13.0772 18.1469 13.0772 18.1387 13.0772H18.1305V13.1421H18.1015V13.1421ZM18.1305 13.0517H18.1554C18.1717 13.0517 18.1799 13.0517 18.1842 13.0473C18.1882 13.0473 18.1924 13.0428 18.1924 13.0428C18.1966 13.0387 18.1966 13.0342 18.1966 13.0298C18.1966 13.0257 18.1924 13.0169 18.1924 13.0169C18.1882 13.0128 18.1842 13.0083 18.18 13.0083C18.1758 13.0083 18.1676 13.0083 18.1554 13.0083H18.1306V13.0517H18.1305Z" fill="white"/>
<path fill-rule="evenodd" clip-rule="evenodd" d="M15.5143 13.1722L15.7828 11.7061H16.1175L16.159 11.857C16.2209 11.7922 16.3242 11.7061 16.5309 11.7061L16.4276 12.0942C16.3367 12.0942 16.196 12.0769 16.0805 12.3615C15.9938 12.5772 15.9523 12.9349 15.9068 13.1722H15.5143V13.1722Z" fill="white"/>
<path fill-rule="evenodd" clip-rule="evenodd" d="M10.4472 11.3396H10.8188L10.7363 11.7276H10.9431L10.8809 12.0294H10.6951L10.5917 12.6117C10.5712 12.7196 10.5917 12.8275 10.7984 12.7841L10.7572 13.1077C10.5341 13.2845 10.0874 13.1551 10.1577 12.7196L10.4472 11.3396Z" fill="white"/>
<path fill-rule="evenodd" clip-rule="evenodd" d="M12.1043 12.5253C12.1455 12.2882 12.2489 11.7061 11.5836 11.7061C10.9637 11.7061 10.8809 12.353 10.8809 12.439C10.8606 12.5253 10.8606 13.1722 11.5217 13.1722C11.6869 13.1722 11.9185 13.1506 12.0218 13.1076L12.0837 12.8056C12.0218 12.8274 11.8109 12.8489 11.6457 12.8489C11.5011 12.8489 11.2532 12.8489 11.2944 12.5253H12.1043V12.5253Z" fill="white"/>
<path fill-rule="evenodd" clip-rule="evenodd" d="M7.59536 13.1722L7.92605 11.4041H7.28131L6.82659 12.4823L6.74386 11.4041H6.14464L5.8139 13.1722H6.18584L6.43407 11.9L6.53743 13.1722H6.88874L7.42591 11.9215L7.19853 13.1722H7.59536Z" fill="white"/>
<path fill-rule="evenodd" clip-rule="evenodd" d="M8.02917 11.7491L7.9673 12.0727C8.07065 12.0727 8.31857 12.0294 8.44255 12.0294C8.56653 12.0294 8.7318 12.008 8.66993 12.2237C8.56653 12.2237 7.88448 12.1158 7.78112 12.7411C7.72351 13.1551 8.19459 13.306 8.48375 13.1077L8.52523 13.1937H8.87632L9.02115 12.396C9.17401 11.6758 8.50869 11.6628 8.02917 11.7491Z" fill="white"/>
<path fill-rule="evenodd" clip-rule="evenodd" d="M14.1836 11.8785C14.0884 11.818 14.0305 11.818 13.9108 11.818C13.795 11.818 13.5222 11.9388 13.4849 12.2621C13.427 12.6677 13.6792 12.8489 14.0469 12.7281L14.1463 13.0731C13.5182 13.4008 12.9185 12.8919 13.1171 12.0983C13.278 11.4989 14.0387 11.1368 14.4191 11.6327L14.1836 11.8785Z" fill="white"/>
<path fill-rule="evenodd" clip-rule="evenodd" d="M17.461 11.8785C16.4482 11.0849 16.0554 13.1722 16.8408 13.1722C16.9648 13.1722 17.089 13.1076 17.1715 13.0643L17.2127 13.1722H17.6262L17.9569 11.3178H17.5641L17.461 11.8785Z" fill="white"/>
<path fill-rule="evenodd" clip-rule="evenodd" d="M14.4809 11.7491L14.4191 12.0727C14.5221 12.0727 14.7704 12.0294 14.8941 12.0294C15.0184 12.0294 15.1629 12.008 15.1217 12.2237C15.0184 12.2237 14.3363 12.1158 14.2333 12.7411C14.1914 13.0429 14.4397 13.1937 14.6258 13.1937C14.8116 13.1937 14.8737 13.1507 14.9356 13.1077L14.9768 13.1937H15.3284L15.473 12.396C15.6301 11.6758 14.9644 11.6628 14.4809 11.7491Z" fill="white"/>
<path fill-rule="evenodd" clip-rule="evenodd" d="M11.2944 12.2451H11.7697C11.8233 11.8526 11.3729 11.9304 11.2944 12.2451Z" fill="#EB2230"/>
<path fill-rule="evenodd" clip-rule="evenodd" d="M8.6081 12.5253C8.546 12.5253 8.40139 12.4823 8.27709 12.5687C8.15343 12.6547 8.11191 12.8056 8.25674 12.8489C8.38045 12.8919 8.546 12.8056 8.58716 12.6762L8.6081 12.5253Z" fill="#EB2230"/>
<path fill-rule="evenodd" clip-rule="evenodd" d="M17.2748 12.1157C17.1508 11.943 16.8823 12.0727 16.7995 12.3959C16.7377 12.6117 16.8617 12.7625 16.9857 12.7625C17.246 12.7626 17.4031 12.3185 17.2748 12.1157Z" fill="#FBB230"/>
<path fill-rule="evenodd" clip-rule="evenodd" d="M15.0802 12.5253C15.0184 12.5253 14.8738 12.4823 14.7495 12.5687C14.6259 12.6547 14.5843 12.8056 14.7292 12.8489C14.8529 12.8919 15.0391 12.8056 15.0596 12.6762L15.0802 12.5253Z" fill="#FBB230"/>
<path fill-rule="evenodd" clip-rule="evenodd" d="M12.1043 13.1937L12.1252 13.0428L12.3731 11.7276H12.7036L12.7448 11.8785C12.8069 11.8137 12.9103 11.7276 13.117 11.7276L13.0136 12.1157C12.9351 12.1157 12.7697 12.0983 12.6457 12.4434C12.5754 12.6417 12.5341 12.9783 12.4969 13.1937H12.1043Z" fill="white"/>
<path fill-rule="evenodd" clip-rule="evenodd" d="M10.104 12.0813H10.0873H10.071L10.0547 12.0769L10.038 12.0727H10.0213L10.0049 12.0683C9.9304 12.0597 9.86852 12.0553 9.79427 12.0597C9.60393 12.0768 9.52147 12.2017 9.68249 12.2966C9.81068 12.3744 9.91005 12.3614 9.99649 12.4478C10.1827 12.6288 10.0874 12.9782 9.88072 13.1118L9.84373 13.1291L9.80248 13.1465L9.75706 13.1592L9.71585 13.1721C9.5173 13.2066 9.24876 13.198 9.05438 13.1291L9.1081 12.84C9.26513 12.8745 9.52156 12.9479 9.64128 12.8618C9.77773 12.7669 9.6537 12.6546 9.55429 12.6072L9.50488 12.5901L9.45547 12.5687C9.06268 12.3829 9.15389 11.887 9.52551 11.7836C9.67433 11.7491 9.8232 11.7491 9.97623 11.7621H10.005C10.0423 11.7662 10.0754 11.7707 10.1084 11.7792H10.1248L10.1372 11.7836H10.1496L10.1578 11.788H10.1702L10.104 12.0813Z" fill="white"/>
</g>
<defs>
<clipPath id="clip0">
<rect width="24" height="24" fill="white"/>
</clipPath>
</defs>
</svg>
